<svg xmlns="http://www.w3.org/2000/svg" viewBox="0 0 200 200">
	<defs>
		<style>
			.cls-1 {
				fill: #2ba667;
			}
		</style>
	</defs>
	<g id="圆环边框">
		<path class="cls-1"
			d="M100,13a87,87,0,1,1-87,87,87.1,87.1,0,0,1,87-87m0-13A100,100,0,1,0,200,100,100,100,0,0,0,100,0Z" />
	</g>
	<g id="内部箭头">
		<path class="cls-1"
			d="M170.06,95.48,101.57,27a2.22,2.22,0,0,0-3.14,0L29.94,95.48A2.17,2.17,0,0,0,29.29,97v13.54a2.21,2.21,0,0,0,3.78,1.56L89.22,56A2.22,2.22,0,0,1,93,57.56V171.45a2.21,2.21,0,0,0,2.21,2.22h9.58a2.21,2.21,0,0,0,2.21-2.22V57.56A2.22,2.22,0,0,1,110.78,56l56.15,56.15a2.21,2.21,0,0,0,3.78-1.56V97A2.17,2.17,0,0,0,170.06,95.48Z" />
	</g>
</svg>
