<svg width="785" height="785" xmlns="http://www.w3.org/2000/svg" xmlns:xlink="http://www.w3.org/1999/xlink" overflow="hidden"><defs><clipPath id="clip0"><rect x="-35" y="-35" width="785" height="785"/></clipPath></defs><g clip-path="url(#clip0)" transform="translate(35 35)"><path d="M714.5 357.5C714.5 554.666 554.666 714.5 357.5 714.5 160.334 714.5 0.499836 554.666 0.499836 357.5 0.499836 160.334 160.334 0.499836 357.5 0.499836 554.666 0.499836 714.5 160.334 714.5 357.5Z" stroke="#2BA667" stroke-width="71.2853" stroke-miterlimit="8" fill="#FFFFFF" fill-rule="evenodd" fill-opacity="0"/><path d="M473.1 377.956 401.7 306.609 401.7 444.555 401.7 582.5 357.5 582.5 313.3 582.5 313.3 446.137C313.3 371.138 311.06 309.775 308.322 309.775 305.584 309.775 273.454 339.632 236.922 376.123L170.5 442.473 170.5 381.146 170.5 319.819 264.09 226.159 357.679 132.5 451.09 226.339 544.5 320.178 544.5 384.741 544.5 449.303 473.1 377.956 473.1 377.956Z" stroke="#2BA667" stroke-width="0" stroke-miterlimit="8" fill="#2BA667" fill-rule="evenodd"/></g></svg>