<svg xmlns="http://www.w3.org/2000/svg" viewBox="0 0 400 400">
	<defs>
		<style>
			.cls-1{
				fill:#2ba667;
			}
		</style>
	</defs>
	<g id="圆环边框">
		<path class="cls-1" d="M200,32A168,168,0,0,1,318.79,318.79,168,168,0,1,1,81.21,81.21,166.9,166.9,0,0,1,200,32m0-32C89.54,0,0,89.54,0,200S89.54,400,200,400s200-89.54,200-200S310.46,0,200,0Z"/>
	</g>
	<g id="内部箭头">
		<path class="cls-1" d="M197.77,54.42,80.71,171.48a3.15,3.15,0,0,0-.92,2.23v44.83a3.15,3.15,0,0,0,5.37,2.23l21.5-21.5,67.72-67.71a3.14,3.14,0,0,1,5.37,2.22V343.85A3.15,3.15,0,0,0,182.9,347h31.7a3.15,3.15,0,0,0,3.15-3.15V131.28a3.14,3.14,0,0,1,5.37-2.22l70.22,70.21,21.5,21.5a3.15,3.15,0,0,0,5.37-2.23V173.71a3.15,3.15,0,0,0-.92-2.23L202.23,54.42A3.16,3.16,0,0,0,197.77,54.42Z"/>
	</g>
</svg>
